<mxfile host="Electron" modified="2024-04-11T23:59:40.257Z" agent="Mozilla/5.0 (X11; Linux x86_64) AppleWebKit/537.36 (KHTML, like Gecko) draw.io/24.0.4 Chrome/122.0.6261.112 Electron/29.1.2 Safari/537.36" etag="ansiVf39K-bycw0MMbJf" version="24.0.4" type="device">
  <diagram name="Page-1" id="-NNGL4mW3Y8jt-ZhfhwO">
    <mxGraphModel dx="1023" dy="694" grid="1" gridSize="10" guides="1" tooltips="1" connect="1" arrows="1" fold="1" page="1" pageScale="1" pageWidth="1100" pageHeight="850" math="0" shadow="0">
      <root>
        <mxCell id="0" />
        <mxCell id="1" parent="0" />
        <mxCell id="ONxXVWHzVPM0Q5yVXpUs-14" value="Employee&lt;span style=&quot;white-space: pre;&quot;&gt;&#x9;&lt;/span&gt;" style="swimlane;fontStyle=0;childLayout=stackLayout;horizontal=1;startSize=26;fillColor=none;horizontalStack=0;resizeParent=1;resizeParentMax=0;resizeLast=0;collapsible=1;marginBottom=0;whiteSpace=wrap;html=1;" vertex="1" parent="1">
          <mxGeometry x="360" y="330" width="140" height="260" as="geometry" />
        </mxCell>
        <mxCell id="ONxXVWHzVPM0Q5yVXpUs-60" value="EmployeeID" style="text;strokeColor=none;fillColor=none;align=left;verticalAlign=top;spacingLeft=4;spacingRight=4;overflow=hidden;rotatable=0;points=[[0,0.5],[1,0.5]];portConstraint=eastwest;whiteSpace=wrap;html=1;" vertex="1" parent="ONxXVWHzVPM0Q5yVXpUs-14">
          <mxGeometry y="26" width="140" height="26" as="geometry" />
        </mxCell>
        <mxCell id="ONxXVWHzVPM0Q5yVXpUs-15" value="hourlyRate" style="text;strokeColor=none;fillColor=none;align=left;verticalAlign=top;spacingLeft=4;spacingRight=4;overflow=hidden;rotatable=0;points=[[0,0.5],[1,0.5]];portConstraint=eastwest;whiteSpace=wrap;html=1;" vertex="1" parent="ONxXVWHzVPM0Q5yVXpUs-14">
          <mxGeometry y="52" width="140" height="26" as="geometry" />
        </mxCell>
        <mxCell id="ONxXVWHzVPM0Q5yVXpUs-16" value="netLeave" style="text;strokeColor=none;fillColor=none;align=left;verticalAlign=top;spacingLeft=4;spacingRight=4;overflow=hidden;rotatable=0;points=[[0,0.5],[1,0.5]];portConstraint=eastwest;whiteSpace=wrap;html=1;" vertex="1" parent="ONxXVWHzVPM0Q5yVXpUs-14">
          <mxGeometry y="78" width="140" height="26" as="geometry" />
        </mxCell>
        <mxCell id="ONxXVWHzVPM0Q5yVXpUs-17" value="netSalary" style="text;strokeColor=none;fillColor=none;align=left;verticalAlign=top;spacingLeft=4;spacingRight=4;overflow=hidden;rotatable=0;points=[[0,0.5],[1,0.5]];portConstraint=eastwest;whiteSpace=wrap;html=1;" vertex="1" parent="ONxXVWHzVPM0Q5yVXpUs-14">
          <mxGeometry y="104" width="140" height="26" as="geometry" />
        </mxCell>
        <mxCell id="ONxXVWHzVPM0Q5yVXpUs-18" value="supervisor" style="text;strokeColor=none;fillColor=none;align=left;verticalAlign=top;spacingLeft=4;spacingRight=4;overflow=hidden;rotatable=0;points=[[0,0.5],[1,0.5]];portConstraint=eastwest;whiteSpace=wrap;html=1;" vertex="1" parent="ONxXVWHzVPM0Q5yVXpUs-14">
          <mxGeometry y="130" width="140" height="26" as="geometry" />
        </mxCell>
        <mxCell id="ONxXVWHzVPM0Q5yVXpUs-19" value="isAdmin" style="text;strokeColor=none;fillColor=none;align=left;verticalAlign=top;spacingLeft=4;spacingRight=4;overflow=hidden;rotatable=0;points=[[0,0.5],[1,0.5]];portConstraint=eastwest;whiteSpace=wrap;html=1;" vertex="1" parent="ONxXVWHzVPM0Q5yVXpUs-14">
          <mxGeometry y="156" width="140" height="26" as="geometry" />
        </mxCell>
        <mxCell id="ONxXVWHzVPM0Q5yVXpUs-29" value="leaveTime" style="text;strokeColor=none;fillColor=none;align=left;verticalAlign=top;spacingLeft=4;spacingRight=4;overflow=hidden;rotatable=0;points=[[0,0.5],[1,0.5]];portConstraint=eastwest;whiteSpace=wrap;html=1;" vertex="1" parent="ONxXVWHzVPM0Q5yVXpUs-14">
          <mxGeometry y="182" width="140" height="26" as="geometry" />
        </mxCell>
        <mxCell id="ONxXVWHzVPM0Q5yVXpUs-30" value="sickTime" style="text;strokeColor=none;fillColor=none;align=left;verticalAlign=top;spacingLeft=4;spacingRight=4;overflow=hidden;rotatable=0;points=[[0,0.5],[1,0.5]];portConstraint=eastwest;whiteSpace=wrap;html=1;" vertex="1" parent="ONxXVWHzVPM0Q5yVXpUs-14">
          <mxGeometry y="208" width="140" height="26" as="geometry" />
        </mxCell>
        <mxCell id="ONxXVWHzVPM0Q5yVXpUs-61" value="socialSecurityNumber" style="text;strokeColor=none;fillColor=none;align=left;verticalAlign=top;spacingLeft=4;spacingRight=4;overflow=hidden;rotatable=0;points=[[0,0.5],[1,0.5]];portConstraint=eastwest;whiteSpace=wrap;html=1;" vertex="1" parent="ONxXVWHzVPM0Q5yVXpUs-14">
          <mxGeometry y="234" width="140" height="26" as="geometry" />
        </mxCell>
        <mxCell id="ONxXVWHzVPM0Q5yVXpUs-21" value="PunchCard" style="swimlane;fontStyle=0;childLayout=stackLayout;horizontal=1;startSize=26;fillColor=none;horizontalStack=0;resizeParent=1;resizeParentMax=0;resizeLast=0;collapsible=1;marginBottom=0;whiteSpace=wrap;html=1;" vertex="1" parent="1">
          <mxGeometry x="560" y="490" width="140" height="104" as="geometry" />
        </mxCell>
        <mxCell id="ONxXVWHzVPM0Q5yVXpUs-22" value="clockIn" style="text;strokeColor=none;fillColor=none;align=left;verticalAlign=top;spacingLeft=4;spacingRight=4;overflow=hidden;rotatable=0;points=[[0,0.5],[1,0.5]];portConstraint=eastwest;whiteSpace=wrap;html=1;" vertex="1" parent="ONxXVWHzVPM0Q5yVXpUs-21">
          <mxGeometry y="26" width="140" height="26" as="geometry" />
        </mxCell>
        <mxCell id="ONxXVWHzVPM0Q5yVXpUs-23" value="clockOut" style="text;strokeColor=none;fillColor=none;align=left;verticalAlign=top;spacingLeft=4;spacingRight=4;overflow=hidden;rotatable=0;points=[[0,0.5],[1,0.5]];portConstraint=eastwest;whiteSpace=wrap;html=1;" vertex="1" parent="ONxXVWHzVPM0Q5yVXpUs-21">
          <mxGeometry y="52" width="140" height="26" as="geometry" />
        </mxCell>
        <mxCell id="ONxXVWHzVPM0Q5yVXpUs-24" value="date" style="text;strokeColor=none;fillColor=none;align=left;verticalAlign=top;spacingLeft=4;spacingRight=4;overflow=hidden;rotatable=0;points=[[0,0.5],[1,0.5]];portConstraint=eastwest;whiteSpace=wrap;html=1;" vertex="1" parent="ONxXVWHzVPM0Q5yVXpUs-21">
          <mxGeometry y="78" width="140" height="26" as="geometry" />
        </mxCell>
        <mxCell id="ONxXVWHzVPM0Q5yVXpUs-25" value="TimeSheet" style="swimlane;fontStyle=0;childLayout=stackLayout;horizontal=1;startSize=26;fillColor=none;horizontalStack=0;resizeParent=1;resizeParentMax=0;resizeLast=0;collapsible=1;marginBottom=0;whiteSpace=wrap;html=1;" vertex="1" parent="1">
          <mxGeometry x="560" y="330" width="140" height="78" as="geometry" />
        </mxCell>
        <mxCell id="ONxXVWHzVPM0Q5yVXpUs-26" value="hoursWorked" style="text;strokeColor=none;fillColor=none;align=left;verticalAlign=top;spacingLeft=4;spacingRight=4;overflow=hidden;rotatable=0;points=[[0,0.5],[1,0.5]];portConstraint=eastwest;whiteSpace=wrap;html=1;" vertex="1" parent="ONxXVWHzVPM0Q5yVXpUs-25">
          <mxGeometry y="26" width="140" height="26" as="geometry" />
        </mxCell>
        <mxCell id="ONxXVWHzVPM0Q5yVXpUs-27" value="date" style="text;strokeColor=none;fillColor=none;align=left;verticalAlign=top;spacingLeft=4;spacingRight=4;overflow=hidden;rotatable=0;points=[[0,0.5],[1,0.5]];portConstraint=eastwest;whiteSpace=wrap;html=1;" vertex="1" parent="ONxXVWHzVPM0Q5yVXpUs-25">
          <mxGeometry y="52" width="140" height="26" as="geometry" />
        </mxCell>
        <mxCell id="ONxXVWHzVPM0Q5yVXpUs-32" value="" style="endArrow=none;html=1;edgeStyle=orthogonalEdgeStyle;rounded=0;" edge="1" parent="1" target="ONxXVWHzVPM0Q5yVXpUs-25">
          <mxGeometry relative="1" as="geometry">
            <mxPoint x="630" y="490" as="sourcePoint" />
            <mxPoint x="680" y="430" as="targetPoint" />
          </mxGeometry>
        </mxCell>
        <mxCell id="ONxXVWHzVPM0Q5yVXpUs-33" value="1" style="edgeLabel;resizable=0;html=1;align=left;verticalAlign=bottom;" connectable="0" vertex="1" parent="ONxXVWHzVPM0Q5yVXpUs-32">
          <mxGeometry x="-1" relative="1" as="geometry">
            <mxPoint x="-20" as="offset" />
          </mxGeometry>
        </mxCell>
        <mxCell id="ONxXVWHzVPM0Q5yVXpUs-34" value="0..*" style="edgeLabel;resizable=0;html=1;align=right;verticalAlign=bottom;" connectable="0" vertex="1" parent="ONxXVWHzVPM0Q5yVXpUs-32">
          <mxGeometry x="1" relative="1" as="geometry">
            <mxPoint x="-10" y="20" as="offset" />
          </mxGeometry>
        </mxCell>
        <mxCell id="ONxXVWHzVPM0Q5yVXpUs-42" value="PayStub" style="swimlane;fontStyle=0;childLayout=stackLayout;horizontal=1;startSize=26;fillColor=none;horizontalStack=0;resizeParent=1;resizeParentMax=0;resizeLast=0;collapsible=1;marginBottom=0;whiteSpace=wrap;html=1;" vertex="1" parent="1">
          <mxGeometry x="360" y="50" width="140" height="182" as="geometry" />
        </mxCell>
        <mxCell id="ONxXVWHzVPM0Q5yVXpUs-45" value="totalGrossPay" style="text;strokeColor=none;fillColor=none;align=left;verticalAlign=top;spacingLeft=4;spacingRight=4;overflow=hidden;rotatable=0;points=[[0,0.5],[1,0.5]];portConstraint=eastwest;whiteSpace=wrap;html=1;" vertex="1" parent="ONxXVWHzVPM0Q5yVXpUs-42">
          <mxGeometry y="26" width="140" height="26" as="geometry" />
        </mxCell>
        <mxCell id="ONxXVWHzVPM0Q5yVXpUs-48" value="accrewedLeave" style="text;strokeColor=none;fillColor=none;align=left;verticalAlign=top;spacingLeft=4;spacingRight=4;overflow=hidden;rotatable=0;points=[[0,0.5],[1,0.5]];portConstraint=eastwest;whiteSpace=wrap;html=1;" vertex="1" parent="ONxXVWHzVPM0Q5yVXpUs-42">
          <mxGeometry y="52" width="140" height="26" as="geometry" />
        </mxCell>
        <mxCell id="ONxXVWHzVPM0Q5yVXpUs-43" value="benefitDeductions" style="text;strokeColor=none;fillColor=none;align=left;verticalAlign=top;spacingLeft=4;spacingRight=4;overflow=hidden;rotatable=0;points=[[0,0.5],[1,0.5]];portConstraint=eastwest;whiteSpace=wrap;html=1;" vertex="1" parent="ONxXVWHzVPM0Q5yVXpUs-42">
          <mxGeometry y="78" width="140" height="26" as="geometry" />
        </mxCell>
        <mxCell id="ONxXVWHzVPM0Q5yVXpUs-46" value="stateTax" style="text;strokeColor=none;fillColor=none;align=left;verticalAlign=top;spacingLeft=4;spacingRight=4;overflow=hidden;rotatable=0;points=[[0,0.5],[1,0.5]];portConstraint=eastwest;whiteSpace=wrap;html=1;" vertex="1" parent="ONxXVWHzVPM0Q5yVXpUs-42">
          <mxGeometry y="104" width="140" height="26" as="geometry" />
        </mxCell>
        <mxCell id="ONxXVWHzVPM0Q5yVXpUs-47" value="federalTax" style="text;strokeColor=none;fillColor=none;align=left;verticalAlign=top;spacingLeft=4;spacingRight=4;overflow=hidden;rotatable=0;points=[[0,0.5],[1,0.5]];portConstraint=eastwest;whiteSpace=wrap;html=1;" vertex="1" parent="ONxXVWHzVPM0Q5yVXpUs-42">
          <mxGeometry y="130" width="140" height="26" as="geometry" />
        </mxCell>
        <mxCell id="ONxXVWHzVPM0Q5yVXpUs-49" value="municipleTax" style="text;strokeColor=none;fillColor=none;align=left;verticalAlign=top;spacingLeft=4;spacingRight=4;overflow=hidden;rotatable=0;points=[[0,0.5],[1,0.5]];portConstraint=eastwest;whiteSpace=wrap;html=1;" vertex="1" parent="ONxXVWHzVPM0Q5yVXpUs-42">
          <mxGeometry y="156" width="140" height="26" as="geometry" />
        </mxCell>
        <mxCell id="ONxXVWHzVPM0Q5yVXpUs-50" value="" style="endArrow=none;html=1;edgeStyle=orthogonalEdgeStyle;rounded=0;entryX=0.573;entryY=0.023;entryDx=0;entryDy=0;entryPerimeter=0;" edge="1" parent="1" source="ONxXVWHzVPM0Q5yVXpUs-42" target="ONxXVWHzVPM0Q5yVXpUs-25">
          <mxGeometry relative="1" as="geometry">
            <mxPoint x="520" y="120" as="sourcePoint" />
            <mxPoint x="680" y="120" as="targetPoint" />
          </mxGeometry>
        </mxCell>
        <mxCell id="ONxXVWHzVPM0Q5yVXpUs-51" value="0..*" style="edgeLabel;resizable=0;html=1;align=left;verticalAlign=bottom;" connectable="0" vertex="1" parent="ONxXVWHzVPM0Q5yVXpUs-50">
          <mxGeometry x="-1" relative="1" as="geometry" />
        </mxCell>
        <mxCell id="ONxXVWHzVPM0Q5yVXpUs-52" value="1" style="edgeLabel;resizable=0;html=1;align=right;verticalAlign=bottom;" connectable="0" vertex="1" parent="ONxXVWHzVPM0Q5yVXpUs-50">
          <mxGeometry x="1" relative="1" as="geometry" />
        </mxCell>
        <mxCell id="ONxXVWHzVPM0Q5yVXpUs-53" value="" style="endArrow=none;html=1;edgeStyle=orthogonalEdgeStyle;rounded=0;" edge="1" parent="1" source="ONxXVWHzVPM0Q5yVXpUs-62" target="ONxXVWHzVPM0Q5yVXpUs-14">
          <mxGeometry relative="1" as="geometry">
            <mxPoint x="110" y="500" as="sourcePoint" />
            <mxPoint x="270" y="500" as="targetPoint" />
          </mxGeometry>
        </mxCell>
        <mxCell id="ONxXVWHzVPM0Q5yVXpUs-54" value="0..*" style="edgeLabel;resizable=0;html=1;align=left;verticalAlign=bottom;" connectable="0" vertex="1" parent="ONxXVWHzVPM0Q5yVXpUs-53">
          <mxGeometry x="-1" relative="1" as="geometry">
            <mxPoint x="10" as="offset" />
          </mxGeometry>
        </mxCell>
        <mxCell id="ONxXVWHzVPM0Q5yVXpUs-55" value="0..*" style="edgeLabel;resizable=0;html=1;align=right;verticalAlign=bottom;" connectable="0" vertex="1" parent="ONxXVWHzVPM0Q5yVXpUs-53">
          <mxGeometry x="1" relative="1" as="geometry">
            <mxPoint x="-10" as="offset" />
          </mxGeometry>
        </mxCell>
        <mxCell id="ONxXVWHzVPM0Q5yVXpUs-62" value="leave" style="swimlane;fontStyle=0;childLayout=stackLayout;horizontal=1;startSize=26;fillColor=none;horizontalStack=0;resizeParent=1;resizeParentMax=0;resizeLast=0;collapsible=1;marginBottom=0;whiteSpace=wrap;html=1;" vertex="1" parent="1">
          <mxGeometry x="100" y="408" width="140" height="104" as="geometry" />
        </mxCell>
        <mxCell id="ONxXVWHzVPM0Q5yVXpUs-65" value="requestStatus" style="text;strokeColor=none;fillColor=none;align=left;verticalAlign=top;spacingLeft=4;spacingRight=4;overflow=hidden;rotatable=0;points=[[0,0.5],[1,0.5]];portConstraint=eastwest;whiteSpace=wrap;html=1;" vertex="1" parent="ONxXVWHzVPM0Q5yVXpUs-62">
          <mxGeometry y="26" width="140" height="26" as="geometry" />
        </mxCell>
        <mxCell id="ONxXVWHzVPM0Q5yVXpUs-63" value="date" style="text;strokeColor=none;fillColor=none;align=left;verticalAlign=top;spacingLeft=4;spacingRight=4;overflow=hidden;rotatable=0;points=[[0,0.5],[1,0.5]];portConstraint=eastwest;whiteSpace=wrap;html=1;" vertex="1" parent="ONxXVWHzVPM0Q5yVXpUs-62">
          <mxGeometry y="52" width="140" height="26" as="geometry" />
        </mxCell>
        <mxCell id="ONxXVWHzVPM0Q5yVXpUs-64" value="hours" style="text;strokeColor=none;fillColor=none;align=left;verticalAlign=top;spacingLeft=4;spacingRight=4;overflow=hidden;rotatable=0;points=[[0,0.5],[1,0.5]];portConstraint=eastwest;whiteSpace=wrap;html=1;" vertex="1" parent="ONxXVWHzVPM0Q5yVXpUs-62">
          <mxGeometry y="78" width="140" height="26" as="geometry" />
        </mxCell>
        <mxCell id="ONxXVWHzVPM0Q5yVXpUs-66" value="LeaveRequest" style="swimlane;fontStyle=0;childLayout=stackLayout;horizontal=1;startSize=26;fillColor=none;horizontalStack=0;resizeParent=1;resizeParentMax=0;resizeLast=0;collapsible=1;marginBottom=0;whiteSpace=wrap;html=1;" vertex="1" parent="1">
          <mxGeometry x="160" y="540" width="140" height="78" as="geometry" />
        </mxCell>
        <mxCell id="ONxXVWHzVPM0Q5yVXpUs-67" value="requestTime" style="text;strokeColor=none;fillColor=none;align=left;verticalAlign=top;spacingLeft=4;spacingRight=4;overflow=hidden;rotatable=0;points=[[0,0.5],[1,0.5]];portConstraint=eastwest;whiteSpace=wrap;html=1;" vertex="1" parent="ONxXVWHzVPM0Q5yVXpUs-66">
          <mxGeometry y="26" width="140" height="26" as="geometry" />
        </mxCell>
        <mxCell id="ONxXVWHzVPM0Q5yVXpUs-68" value="requestDate" style="text;strokeColor=none;fillColor=none;align=left;verticalAlign=top;spacingLeft=4;spacingRight=4;overflow=hidden;rotatable=0;points=[[0,0.5],[1,0.5]];portConstraint=eastwest;whiteSpace=wrap;html=1;" vertex="1" parent="ONxXVWHzVPM0Q5yVXpUs-66">
          <mxGeometry y="52" width="140" height="26" as="geometry" />
        </mxCell>
        <mxCell id="ONxXVWHzVPM0Q5yVXpUs-70" value="" style="endArrow=none;dashed=1;html=1;rounded=0;" edge="1" parent="1" source="ONxXVWHzVPM0Q5yVXpUs-66">
          <mxGeometry width="50" height="50" relative="1" as="geometry">
            <mxPoint x="200" y="520" as="sourcePoint" />
            <mxPoint x="280" y="460" as="targetPoint" />
          </mxGeometry>
        </mxCell>
        <mxCell id="ONxXVWHzVPM0Q5yVXpUs-71" value="PayStubAssocation" style="swimlane;fontStyle=0;childLayout=stackLayout;horizontal=1;startSize=26;fillColor=none;horizontalStack=0;resizeParent=1;resizeParentMax=0;resizeLast=0;collapsible=1;marginBottom=0;whiteSpace=wrap;html=1;" vertex="1" parent="1">
          <mxGeometry x="130" y="230" width="140" height="78" as="geometry" />
        </mxCell>
        <mxCell id="ONxXVWHzVPM0Q5yVXpUs-72" value="Year" style="text;strokeColor=none;fillColor=none;align=left;verticalAlign=top;spacingLeft=4;spacingRight=4;overflow=hidden;rotatable=0;points=[[0,0.5],[1,0.5]];portConstraint=eastwest;whiteSpace=wrap;html=1;" vertex="1" parent="ONxXVWHzVPM0Q5yVXpUs-71">
          <mxGeometry y="26" width="140" height="26" as="geometry" />
        </mxCell>
        <mxCell id="ONxXVWHzVPM0Q5yVXpUs-79" value="" style="endArrow=none;dashed=1;html=1;rounded=0;" edge="1" parent="ONxXVWHzVPM0Q5yVXpUs-71">
          <mxGeometry width="50" height="50" relative="1" as="geometry">
            <mxPoint x="300" y="40" as="sourcePoint" />
            <mxPoint x="140" y="40" as="targetPoint" />
          </mxGeometry>
        </mxCell>
        <mxCell id="ONxXVWHzVPM0Q5yVXpUs-73" value="payPeriod" style="text;strokeColor=none;fillColor=none;align=left;verticalAlign=top;spacingLeft=4;spacingRight=4;overflow=hidden;rotatable=0;points=[[0,0.5],[1,0.5]];portConstraint=eastwest;whiteSpace=wrap;html=1;" vertex="1" parent="ONxXVWHzVPM0Q5yVXpUs-71">
          <mxGeometry y="52" width="140" height="26" as="geometry" />
        </mxCell>
        <mxCell id="ONxXVWHzVPM0Q5yVXpUs-76" value="" style="endArrow=none;html=1;edgeStyle=orthogonalEdgeStyle;rounded=0;" edge="1" parent="1" source="ONxXVWHzVPM0Q5yVXpUs-42" target="ONxXVWHzVPM0Q5yVXpUs-14">
          <mxGeometry relative="1" as="geometry">
            <mxPoint x="290" y="290" as="sourcePoint" />
            <mxPoint x="450" y="290" as="targetPoint" />
          </mxGeometry>
        </mxCell>
        <mxCell id="ONxXVWHzVPM0Q5yVXpUs-77" value="0..*" style="edgeLabel;resizable=0;html=1;align=left;verticalAlign=bottom;" connectable="0" vertex="1" parent="ONxXVWHzVPM0Q5yVXpUs-76">
          <mxGeometry x="-1" relative="1" as="geometry">
            <mxPoint x="-30" y="18" as="offset" />
          </mxGeometry>
        </mxCell>
        <mxCell id="ONxXVWHzVPM0Q5yVXpUs-78" value="0..*" style="edgeLabel;resizable=0;html=1;align=right;verticalAlign=bottom;" connectable="0" vertex="1" parent="ONxXVWHzVPM0Q5yVXpUs-76">
          <mxGeometry x="1" relative="1" as="geometry">
            <mxPoint x="-10" y="-10" as="offset" />
          </mxGeometry>
        </mxCell>
      </root>
    </mxGraphModel>
  </diagram>
</mxfile>
